solid deskframe
facet normal 0.7071067811864837 0.7071067811866113 -1.1449899254950397e-13
  outer loop
    vertex 16.99999999999852 -122.4502461100255 -2.752992278587385e-12
    vertex 16.499999999998916 -121.9502461100255 2.9999999999973284
    vertex 16.99999999999901 -122.4502461100255 2.999999999997247
  endloop
endfacet
facet normal 0.7071067811864837 0.7071067811866113 -1.1449899254950397e-13
  outer loop
    vertex 16.499999999998916 -121.9502461100255 2.9999999999973284
    vertex 16.99999999999852 -122.4502461100255 -2.752992278587385e-12
    vertex 16.49999999999843 -121.9502461100255 -2.671918242214133e-12
  endloop
endfacet
facet normal -0.7071067811866273 0.7071067811864677 1.1449899254952722e-13
  outer loop
    vertex 0.49999999999891903 -121.9502461100255 2.999999999999919
    vertex -1.4551027049947151e-12 -122.4502461100255 0.0
    vertex -9.672485035139288e-13 -122.4502461100255 3.0
  endloop
endfacet
facet normal -0.7071067811866273 0.7071067811864677 1.1449899254952722e-13
  outer loop
    vertex -1.4551027049947151e-12 -122.4502461100255 0.0
    vertex 0.49999999999891903 -121.9502461100255 2.999999999999919
    vertex 0.4999999999984312 -121.9502461100255 -8.107403637325206e-14
  endloop
endfacet
facet normal 1.4099832412736768e-15 -1.0 -2.2831298600563625e-28
  outer loop
    vertex 0.4999999999984312 -138.9502461100255 -8.107403637325206e-14
    vertex 16.500000000002007 -138.95024611002546 2.9999999999973284
    vertex 0.49999999999891903 -138.9502461100255 2.999999999999919
  endloop
endfacet
facet normal 1.4099832412736768e-15 -1.0 -2.2831298600563625e-28
  outer loop
    vertex 16.500000000002007 -138.95024611002546 2.9999999999973284
    vertex 0.4999999999984312 -138.9502461100255 -8.107403637325206e-14
    vertex 16.50000000000152 -138.95024611002546 -2.671918242214133e-12
  endloop
endfacet
facet normal 1.6192602814157908e-13 0.0 1.0
  outer loop
    vertex 0.49999999999891903 -121.9502461100255 2.999999999999919
    vertex 16.349999999997763 -122.60024611002551 2.9999999999973523
    vertex 16.499999999998916 -121.9502461100255 2.9999999999973284
  endloop
endfacet
facet normal 1.6192602814157908e-13 0.0 1.0
  outer loop
    vertex 16.349999999997763 -122.60024611002551 2.9999999999973523
    vertex 0.49999999999891903 -121.9502461100255 2.999999999999919
    vertex 0.6500000000000721 -122.60024611002551 2.9999999999998943
  endloop
endfacet
facet normal 1.6192602814157908e-13 0.0 1.0
  outer loop
    vertex 0.6500000000000721 -122.60024611002551 2.9999999999998943
    vertex 0.49999999999891903 -121.9502461100255 2.999999999999919
    vertex 0.6500000000000721 -138.3002461100255 2.9999999999998943
  endloop
endfacet
facet normal 1.6192602814157908e-13 0.0 1.0
  outer loop
    vertex 16.99999999999901 -122.4502461100255 2.999999999997247
    vertex 16.500000000002007 -138.95024611002546 2.9999999999973284
    vertex 17.00000000000192 -138.4502461100255 2.999999999997247
  endloop
endfacet
facet normal 1.6192602814157908e-13 0.0 1.0
  outer loop
    vertex 16.500000000002007 -138.95024611002546 2.9999999999973284
    vertex 16.99999999999901 -122.4502461100255 2.999999999997247
    vertex 16.499999999998916 -121.9502461100255 2.9999999999973284
  endloop
endfacet
facet normal 1.6192602814157908e-13 0.0 1.0
  outer loop
    vertex 16.500000000002007 -138.95024611002546 2.9999999999973284
    vertex 16.499999999998916 -121.9502461100255 2.9999999999973284
    vertex 16.349999999997763 -138.3002461100255 2.9999999999973523
  endloop
endfacet
facet normal 1.6192602814157908e-13 0.0 1.0
  outer loop
    vertex 16.500000000002007 -138.95024611002546 2.9999999999973284
    vertex 16.349999999997763 -138.3002461100255 2.9999999999973523
    vertex 0.49999999999891903 -138.9502461100255 2.999999999999919
  endloop
endfacet
facet normal 1.6192602814157908e-13 0.0 1.0
  outer loop
    vertex 16.349999999997763 -138.3002461100255 2.9999999999973523
    vertex 16.499999999998916 -121.9502461100255 2.9999999999973284
    vertex 16.349999999997763 -122.60024611002551 2.9999999999973523
  endloop
endfacet
facet normal 1.6192602814157908e-13 0.0 1.0
  outer loop
    vertex 0.49999999999891903 -138.9502461100255 2.999999999999919
    vertex 16.349999999997763 -138.3002461100255 2.9999999999973523
    vertex 0.6500000000000721 -138.3002461100255 2.9999999999998943
  endloop
endfacet
facet normal 1.6192602814157908e-13 0.0 1.0
  outer loop
    vertex 0.49999999999891903 -138.9502461100255 2.999999999999919
    vertex 0.6500000000000721 -138.3002461100255 2.9999999999998943
    vertex 0.49999999999891903 -121.9502461100255 2.999999999999919
  endloop
endfacet
facet normal 1.6192602814157908e-13 0.0 1.0
  outer loop
    vertex 0.49999999999891903 -138.9502461100255 2.999999999999919
    vertex 0.49999999999891903 -121.9502461100255 2.999999999999919
    vertex -9.672485035139288e-13 -122.4502461100255 3.0
  endloop
endfacet
facet normal 1.6192602814157908e-13 0.0 1.0
  outer loop
    vertex 0.49999999999891903 -138.9502461100255 2.999999999999919
    vertex -9.672485035139288e-13 -122.4502461100255 3.0
    vertex 1.9457768729580494e-12 -138.45024611002552 3.0
  endloop
endfacet
facet normal 0.7071067811866113 -0.7071067811864837 -1.1449899254952462e-13
  outer loop
    vertex 17.000000000001428 -138.4502461100255 -2.752992278587385e-12
    vertex 16.500000000002007 -138.95024611002546 2.9999999999973284
    vertex 16.50000000000152 -138.95024611002546 -2.671918242214133e-12
  endloop
endfacet
facet normal 0.7071067811866113 -0.7071067811864837 -1.1449899254952462e-13
  outer loop
    vertex 16.500000000002007 -138.95024611002546 2.9999999999973284
    vertex 17.000000000001428 -138.4502461100255 -2.752992278587385e-12
    vertex 17.00000000000192 -138.4502461100255 2.999999999997247
  endloop
endfacet
facet normal 0.0 1.0 0.0
  outer loop
    vertex 16.49999999999843 -121.9502461100255 -2.671918242214133e-12
    vertex 0.49999999999891903 -121.9502461100255 2.999999999999919
    vertex 16.499999999998916 -121.9502461100255 2.9999999999973284
  endloop
endfacet
facet normal 0.0 1.0 0.0
  outer loop
    vertex 0.49999999999891903 -121.9502461100255 2.999999999999919
    vertex 16.49999999999843 -121.9502461100255 -2.671918242214133e-12
    vertex 0.4999999999984312 -121.9502461100255 -8.107403637325206e-14
  endloop
endfacet
facet normal 1.0 1.8188783812433972e-13 -1.6192602814157908e-13
  outer loop
    vertex 16.99999999999852 -122.4502461100255 -2.752992278587385e-12
    vertex 17.00000000000192 -138.4502461100255 2.999999999997247
    vertex 17.000000000001428 -138.4502461100255 -2.752992278587385e-12
  endloop
endfacet
facet normal 1.0 1.8188783812433972e-13 -1.6192602814157908e-13
  outer loop
    vertex 17.00000000000192 -138.4502461100255 2.999999999997247
    vertex 16.99999999999852 -122.4502461100255 -2.752992278587385e-12
    vertex 16.99999999999901 -122.4502461100255 2.999999999997247
  endloop
endfacet
facet normal -1.0 -1.8206408602949844e-13 1.6192602814157908e-13
  outer loop
    vertex -9.672485035139288e-13 -122.4502461100255 3.0
    vertex 1.457922671477263e-12 -138.45024611002552 0.0
    vertex 1.9457768729580494e-12 -138.45024611002552 3.0
  endloop
endfacet
facet normal -1.0 -1.8206408602949844e-13 1.6192602814157908e-13
  outer loop
    vertex 1.457922671477263e-12 -138.45024611002552 0.0
    vertex -9.672485035139288e-13 -122.4502461100255 3.0
    vertex -1.4551027049947151e-12 -122.4502461100255 0.0
  endloop
endfacet
facet normal -0.7071067811886722 -0.7071067811844229 1.1449899254985834e-13
  outer loop
    vertex 1.9457768729580494e-12 -138.45024611002552 3.0
    vertex 0.4999999999984312 -138.9502461100255 -8.107403637325206e-14
    vertex 0.49999999999891903 -138.9502461100255 2.999999999999919
  endloop
endfacet
facet normal -0.7071067811886722 -0.7071067811844229 1.1449899254985834e-13
  outer loop
    vertex 0.4999999999984312 -138.9502461100255 -8.107403637325206e-14
    vertex 1.9457768729580494e-12 -138.45024611002552 3.0
    vertex 1.457922671477263e-12 -138.45024611002552 0.0
  endloop
endfacet
facet normal -0.9914448613738337 0.13052619221987566 1.6054072852364336e-13
  outer loop
    vertex 9.999999999998588 -130.45024611002523 0.9999999999983816
    vertex 9.9488887394321 -130.83847467767902 -1.6109058531554865e-12
    vertex 9.94888873943226 -130.83847467767902 0.9999999999983897
  endloop
endfacet
facet normal -0.9914448613738337 0.13052619221987566 1.6054072852364336e-13
  outer loop
    vertex 9.9488887394321 -130.83847467767902 -1.6109058531554865e-12
    vertex 9.999999999998588 -130.45024611002523 0.9999999999983816
    vertex 9.999999999998426 -130.45024611002523 -1.61936575260313e-12
  endloop
endfacet
facet normal 0.7933533402911148 0.6087614290088774 -1.2846455530619484e-13
  outer loop
    vertex 7.2009618943219085 -131.20024611002574 -1.1660561405335556e-12
    vertex 7.439339828218963 -131.51090628180552 0.9999999999987962
    vertex 7.439339828218802 -131.51090628180552 -1.2048306796685892e-12
  endloop
endfacet
facet normal 0.7933533402911148 0.6087614290088774 -1.2846455530619484e-13
  outer loop
    vertex 7.439339828218963 -131.51090628180552 0.9999999999987962
    vertex 7.2009618943219085 -131.20024611002574 -1.1660561405335556e-12
    vertex 7.200961894322069 -131.20024611002574 0.9999999999988346
  endloop
endfacet
facet normal 1.6192602814157908e-13 0.0 1.0
  outer loop
    vertex 15.849999999997921 -123.10024611002551 3.9999999999974327
    vertex 14.84999999999792 -124.10024611002551 3.999999999997595
    vertex 15.849999999997921 -137.8002461100255 3.9999999999974327
  endloop
endfacet
facet normal 1.6192602814157908e-13 0.0 1.0
  outer loop
    vertex 14.84999999999792 -124.10024611002551 3.999999999997595
    vertex 15.849999999997921 -123.10024611002551 3.9999999999974327
    vertex 1.1500000000002348 -123.10024611002551 3.9999999999998135
  endloop
endfacet
facet normal 1.6192602814157908e-13 0.0 1.0
  outer loop
    vertex 14.84999999999792 -124.10024611002551 3.999999999997595
    vertex 1.1500000000002348 -123.10024611002551 3.9999999999998135
    vertex 2.150000000000233 -124.10024611002551 3.9999999999996514
  endloop
endfacet
facet normal 1.6192602814157908e-13 0.0 1.0
  outer loop
    vertex 2.150000000000233 -124.10024611002551 3.9999999999996514
    vertex 1.1500000000002348 -123.10024611002551 3.9999999999998135
    vertex 2.150000000000233 -136.8002461100255 3.9999999999996514
  endloop
endfacet
facet normal 1.6192602814157908e-13 0.0 1.0
  outer loop
    vertex 15.849999999997921 -137.8002461100255 3.9999999999974327
    vertex 14.84999999999792 -136.8002461100255 3.999999999997595
    vertex 1.1500000000002348 -137.8002461100255 3.9999999999998135
  endloop
endfacet
facet normal 1.6192602814157908e-13 0.0 1.0
  outer loop
    vertex 14.84999999999792 -136.8002461100255 3.999999999997595
    vertex 15.849999999997921 -137.8002461100255 3.9999999999974327
    vertex 14.84999999999792 -124.10024611002551 3.999999999997595
  endloop
endfacet
facet normal 1.6192602814157908e-13 0.0 1.0
  outer loop
    vertex 1.1500000000002348 -137.8002461100255 3.9999999999998135
    vertex 14.84999999999792 -136.8002461100255 3.999999999997595
    vertex 2.150000000000233 -136.8002461100255 3.9999999999996514
  endloop
endfacet
facet normal 1.6192602814157908e-13 0.0 1.0
  outer loop
    vertex 1.1500000000002348 -137.8002461100255 3.9999999999998135
    vertex 2.150000000000233 -136.8002461100255 3.9999999999996514
    vertex 1.1500000000002348 -123.10024611002551 3.9999999999998135
  endloop
endfacet
facet normal -1.6192602814157908e-13 0.0 -1.0
  outer loop
    vertex 16.50000000000152 -138.95024611002546 -2.671918242214133e-12
    vertex 16.99999999999852 -122.4502461100255 -2.752992278587385e-12
    vertex 17.000000000001428 -138.4502461100255 -2.752992278587385e-12
  endloop
endfacet
facet normal -1.6192602814157908e-13 0.0 -1.0
  outer loop
    vertex 16.99999999999852 -122.4502461100255 -2.752992278587385e-12
    vertex 16.50000000000152 -138.95024611002546 -2.671918242214133e-12
    vertex 16.49999999999843 -121.9502461100255 -2.671918242214133e-12
  endloop
endfacet
facet normal -1.6192602814157908e-13 0.0 -1.0
  outer loop
    vertex 16.49999999999843 -121.9502461100255 -2.671918242214133e-12
    vertex 16.50000000000152 -138.95024611002546 -2.671918242214133e-12
    vertex 9.799038105675221 -131.20024611002526 -1.5869361380538292e-12
  endloop
endfacet
facet normal -1.6192602814157908e-13 0.0 -1.0
  outer loop
    vertex 9.799038105675221 -131.20024611002526 -1.5869361380538292e-12
    vertex 16.50000000000152 -138.95024611002546 -2.671918242214133e-12
    vertex 9.560660171778439 -131.51090628180512 -1.5481615989187956e-12
  endloop
endfacet
facet normal -1.6192602814157908e-13 0.0 -1.0
  outer loop
    vertex 9.560660171778439 -131.51090628180512 -1.5481615989187956e-12
    vertex 16.50000000000152 -138.95024611002546 -2.671918242214133e-12
    vertex 0.4999999999984312 -138.9502461100255 -8.107403637325206e-14
  endloop
endfacet
facet normal -1.6192602814157908e-13 0.0 -1.0
  outer loop
    vertex 16.49999999999843 -121.9502461100255 -2.671918242214133e-12
    vertex 9.799038105675221 -131.20024611002526 -1.5869361380538292e-12
    vertex 9.9488887394321 -130.83847467767902 -1.6109058531554865e-12
  endloop
endfacet
facet normal -1.6192602814157908e-13 0.0 -1.0
  outer loop
    vertex 16.49999999999843 -121.9502461100255 -2.671918242214133e-12
    vertex 9.9488887394321 -130.83847467767902 -1.6109058531554865e-12
    vertex 9.999999999998426 -130.45024611002523 -1.61936575260313e-12
  endloop
endfacet
facet normal -1.6192602814157908e-13 0.0 -1.0
  outer loop
    vertex 9.560660171778439 -131.51090628180512 -1.5481615989187956e-12
    vertex 0.4999999999984312 -138.9502461100255 -8.107403637325206e-14
    vertex 9.249999999998662 -131.74928421570203 -1.4981071938535706e-12
  endloop
endfacet
facet normal -1.6192602814157908e-13 0.0 -1.0
  outer loop
    vertex 9.249999999998662 -131.74928421570203 -1.4981071938535706e-12
    vertex 0.4999999999984312 -138.9502461100255 -8.107403637325206e-14
    vertex 8.888228567652472 -131.89913484945905 -1.4395928893407016e-12
  endloop
endfacet
facet normal -1.6192602814157908e-13 0.0 -1.0
  outer loop
    vertex 8.888228567652472 -131.89913484945905 -1.4395928893407016e-12
    vertex 0.4999999999984312 -138.9502461100255 -8.107403637325206e-14
    vertex 8.4999999999987 -131.95024611002552 -1.376848635104011e-12
  endloop
endfacet
facet normal -1.6192602814157908e-13 0.0 -1.0
  outer loop
    vertex 8.4999999999987 -131.95024611002552 -1.376848635104011e-12
    vertex 0.4999999999984312 -138.9502461100255 -8.107403637325206e-14
    vertex 8.11177143234491 -131.8991348494592 -1.3141043808673202e-12
  endloop
endfacet
facet normal -1.6192602814157908e-13 0.0 -1.0
  outer loop
    vertex 8.11177143234491 -131.8991348494592 -1.3141043808673202e-12
    vertex 0.4999999999984312 -138.9502461100255 -8.107403637325206e-14
    vertex 7.749999999998665 -131.7492842157023 -1.2548850847338144e-12
  endloop
endfacet
facet normal -1.6192602814157908e-13 0.0 -1.0
  outer loop
    vertex 7.749999999998665 -131.7492842157023 -1.2548850847338144e-12
    vertex 0.4999999999984312 -138.9502461100255 -8.107403637325206e-14
    vertex 7.439339828218802 -131.51090628180552 -1.2048306796685892e-12
  endloop
endfacet
facet normal -1.6192602814157908e-13 0.0 -1.0
  outer loop
    vertex 7.439339828218802 -131.51090628180552 -1.2048306796685892e-12
    vertex 0.4999999999984312 -138.9502461100255 -8.107403637325206e-14
    vertex 7.2009618943219085 -131.20024611002574 -1.1660561405335556e-12
  endloop
endfacet
facet normal -1.6192602814157908e-13 0.0 -1.0
  outer loop
    vertex 7.2009618943219085 -131.20024611002574 -1.1660561405335556e-12
    vertex 0.4999999999984312 -138.9502461100255 -8.107403637325206e-14
    vertex 7.0511112605649 -130.83847467767956 -1.1420864254318985e-12
  endloop
endfacet
facet normal -1.6192602814157908e-13 0.0 -1.0
  outer loop
    vertex 7.0511112605649 -130.83847467767956 -1.1420864254318985e-12
    vertex 0.4999999999984312 -138.9502461100255 -8.107403637325206e-14
    vertex 6.999999999998432 -130.45024611002577 -1.1336265259842548e-12
  endloop
endfacet
facet normal -1.6192602814157908e-13 0.0 -1.0
  outer loop
    vertex 16.49999999999843 -121.9502461100255 -2.671918242214133e-12
    vertex 9.560660171778055 -129.38958593824552 -1.5481615989187956e-12
    vertex 0.4999999999984312 -121.9502461100255 -8.107403637325206e-14
  endloop
endfacet
facet normal -1.6192602814157908e-13 0.0 -1.0
  outer loop
    vertex 9.560660171778055 -129.38958593824552 -1.5481615989187956e-12
    vertex 16.49999999999843 -121.9502461100255 -2.671918242214133e-12
    vertex 9.79903810567495 -129.7002461100253 -1.5869361380538292e-12
  endloop
endfacet
facet normal -1.6192602814157908e-13 0.0 -1.0
  outer loop
    vertex 9.79903810567495 -129.7002461100253 -1.5869361380538292e-12
    vertex 16.49999999999843 -121.9502461100255 -2.671918242214133e-12
    vertex 9.948888739431958 -130.06201754237145 -1.6109058531554865e-12
  endloop
endfacet
facet normal -1.6192602814157908e-13 0.0 -1.0
  outer loop
    vertex 9.948888739431958 -130.06201754237145 -1.6109058531554865e-12
    vertex 16.49999999999843 -121.9502461100255 -2.671918242214133e-12
    vertex 9.999999999998426 -130.45024611002523 -1.61936575260313e-12
  endloop
endfacet
facet normal -1.6192602814157908e-13 0.0 -1.0
  outer loop
    vertex 0.4999999999984312 -121.9502461100255 -8.107403637325206e-14
    vertex 9.560660171778055 -129.38958593824552 -1.5481615989187956e-12
    vertex 9.249999999998193 -129.15120800434872 -1.4981071938535706e-12
  endloop
endfacet
facet normal -1.6192602814157908e-13 0.0 -1.0
  outer loop
    vertex 0.4999999999984312 -121.9502461100255 -8.107403637325206e-14
    vertex 9.249999999998193 -129.15120800434872 -1.4981071938535706e-12
    vertex 8.888228567651948 -129.00135737059185 -1.4395928893407016e-12
  endloop
endfacet
facet normal -1.6192602814157908e-13 0.0 -1.0
  outer loop
    vertex 0.4999999999984312 -121.9502461100255 -8.107403637325206e-14
    vertex 8.888228567651948 -129.00135737059185 -1.4395928893407016e-12
    vertex 8.499999999998158 -128.95024611002552 -1.376848635104011e-12
  endloop
endfacet
facet normal -1.6192602814157908e-13 0.0 -1.0
  outer loop
    vertex 0.4999999999984312 -121.9502461100255 -8.107403637325206e-14
    vertex 8.499999999998158 -128.95024611002552 -1.376848635104011e-12
    vertex 8.111771432344385 -129.001357370592 -1.3141043808673202e-12
  endloop
endfacet
facet normal -1.6192602814157908e-13 0.0 -1.0
  outer loop
    vertex 0.4999999999984312 -121.9502461100255 -8.107403637325206e-14
    vertex 8.111771432344385 -129.001357370592 -1.3141043808673202e-12
    vertex 7.749999999998196 -129.151208004349 -1.2548850847338144e-12
  endloop
endfacet
facet normal -1.6192602814157908e-13 0.0 -1.0
  outer loop
    vertex 0.4999999999984312 -121.9502461100255 -8.107403637325206e-14
    vertex 7.749999999998196 -129.151208004349 -1.2548850847338144e-12
    vertex 7.4393398282184195 -129.3895859382459 -1.2048306796685892e-12
  endloop
endfacet
facet normal -1.6192602814157908e-13 0.0 -1.0
  outer loop
    vertex 0.4999999999984312 -121.9502461100255 -8.107403637325206e-14
    vertex 7.4393398282184195 -129.3895859382459 -1.2048306796685892e-12
    vertex 7.200961894321638 -129.70024611002574 -1.1660561405335556e-12
  endloop
endfacet
facet normal -1.6192602814157908e-13 0.0 -1.0
  outer loop
    vertex 0.4999999999984312 -121.9502461100255 -8.107403637325206e-14
    vertex 7.200961894321638 -129.70024611002574 -1.1660561405335556e-12
    vertex 7.051111260564759 -130.06201754237202 -1.1420864254318985e-12
  endloop
endfacet
facet normal -1.6192602814157908e-13 0.0 -1.0
  outer loop
    vertex 0.4999999999984312 -121.9502461100255 -8.107403637325206e-14
    vertex 7.051111260564759 -130.06201754237202 -1.1420864254318985e-12
    vertex 6.999999999998432 -130.45024611002577 -1.1336265259842548e-12
  endloop
endfacet
facet normal -1.6192602814157908e-13 0.0 -1.0
  outer loop
    vertex 0.4999999999984312 -121.9502461100255 -8.107403637325206e-14
    vertex 6.999999999998432 -130.45024611002577 -1.1336265259842548e-12
    vertex 0.4999999999984312 -138.9502461100255 -8.107403637325206e-14
  endloop
endfacet
facet normal -1.6192602814157908e-13 0.0 -1.0
  outer loop
    vertex 0.4999999999984312 -121.9502461100255 -8.107403637325206e-14
    vertex 0.4999999999984312 -138.9502461100255 -8.107403637325206e-14
    vertex 1.457922671477263e-12 -138.45024611002552 0.0
  endloop
endfacet
facet normal -1.6192602814157908e-13 0.0 -1.0
  outer loop
    vertex 0.4999999999984312 -121.9502461100255 -8.107403637325206e-14
    vertex 1.457922671477263e-12 -138.45024611002552 0.0
    vertex -1.4551027049947151e-12 -122.4502461100255 0.0
  endloop
endfacet
facet normal -0.8944271909998431 0.0 0.44721359550010326
  outer loop
    vertex 1.1500000000002348 -137.8002461100255 3.9999999999998135
    vertex 0.6500000000000721 -122.60024611002551 2.9999999999998943
    vertex 0.6500000000000721 -138.3002461100255 2.9999999999998943
  endloop
endfacet
facet normal -0.8944271909998431 0.0 0.44721359550010326
  outer loop
    vertex 0.6500000000000721 -122.60024611002551 2.9999999999998943
    vertex 1.1500000000002348 -137.8002461100255 3.9999999999998135
    vertex 1.1500000000002348 -123.10024611002551 3.9999999999998135
  endloop
endfacet
facet normal 0.0 -1.0 0.0
  outer loop
    vertex 2.1500000000000723 -124.10024611002551 2.999999999999652
    vertex 14.84999999999792 -124.10024611002551 3.999999999997595
    vertex 2.150000000000233 -124.10024611002551 3.9999999999996514
  endloop
endfacet
facet normal 0.0 -1.0 0.0
  outer loop
    vertex 14.84999999999792 -124.10024611002551 3.999999999997595
    vertex 2.1500000000000723 -124.10024611002551 2.999999999999652
    vertex 14.84999999999776 -124.10024611002551 2.9999999999975953
  endloop
endfacet
facet normal 0.608761429008867 -0.7933533402911228 -9.857432028519769e-14
  outer loop
    vertex 7.4393398282184195 -129.3895859382459 -1.2048306796685892e-12
    vertex 7.749999999998357 -129.151208004349 0.9999999999987458
    vertex 7.43933982821858 -129.3895859382459 0.9999999999987962
  endloop
endfacet
facet normal 0.608761429008867 -0.7933533402911228 -9.857432028519769e-14
  outer loop
    vertex 7.749999999998357 -129.151208004349 0.9999999999987458
    vertex 7.4393398282184195 -129.3895859382459 -1.2048306796685892e-12
    vertex 7.749999999998196 -129.151208004349 -1.2548850847338144e-12
  endloop
endfacet
facet normal -0.6087614290085813 -0.793353340291342 9.857432028515143e-14
  outer loop
    vertex 9.249999999998193 -129.15120800434872 -1.4981071938535706e-12
    vertex 9.560660171778217 -129.38958593824552 0.9999999999984525
    vertex 9.249999999998355 -129.15120800434872 0.9999999999985029
  endloop
endfacet
facet normal -0.6087614290085813 -0.793353340291342 9.857432028515143e-14
  outer loop
    vertex 9.560660171778217 -129.38958593824552 0.9999999999984525
    vertex 9.249999999998193 -129.15120800434872 -1.4981071938535706e-12
    vertex 9.560660171778055 -129.38958593824552 -1.5481615989187956e-12
  endloop
endfacet
facet normal 0.8944271909999877 0.0 0.4472135954998147
  outer loop
    vertex 16.349999999997763 -122.60024611002551 2.9999999999973523
    vertex 15.849999999997921 -137.8002461100255 3.9999999999974327
    vertex 16.349999999997763 -138.3002461100255 2.9999999999973523
  endloop
endfacet
facet normal 0.8944271909999877 0.0 0.4472135954998147
  outer loop
    vertex 15.849999999997921 -137.8002461100255 3.9999999999974327
    vertex 16.349999999997763 -122.60024611002551 2.9999999999973523
    vertex 15.849999999997921 -123.10024611002551 3.9999999999974327
  endloop
endfacet
facet normal -0.7933533402913393 0.6087614290085848 1.284645553062312e-13
  outer loop
    vertex 9.79903810567538 -131.20024611002526 0.999999999998414
    vertex 9.560660171778439 -131.51090628180512 -1.5481615989187956e-12
    vertex 9.5606601717786 -131.51090628180512 0.9999999999984525
  endloop
endfacet
facet normal -0.7933533402913393 0.6087614290085848 1.284645553062312e-13
  outer loop
    vertex 9.560660171778439 -131.51090628180512 -1.5481615989187956e-12
    vertex 9.79903810567538 -131.20024611002526 0.999999999998414
    vertex 9.799038105675221 -131.20024611002526 -1.5869361380538292e-12
  endloop
endfacet
facet normal 0.1305261922198719 0.991444861373834 -2.113558787460814e-14
  outer loop
    vertex 8.4999999999987 -131.95024611002552 -1.376848635104011e-12
    vertex 8.111771432345071 -131.8991348494592 0.9999999999986873
    vertex 8.499999999998861 -131.95024611002552 0.9999999999986245
  endloop
endfacet
facet normal 0.1305261922198719 0.991444861373834 -2.113558787460814e-14
  outer loop
    vertex 8.111771432345071 -131.8991348494592 0.9999999999986873
    vertex 8.4999999999987 -131.95024611002552 -1.376848635104011e-12
    vertex 8.11177143234491 -131.8991348494592 -1.3141043808673202e-12
  endloop
endfacet
facet normal 1.6192602814157908e-13 0.0 1.0
  outer loop
    vertex 14.84999999999776 -124.10024611002551 2.9999999999975953
    vertex 11.109285559957938 -128.9437743895899 2.999999999998201
    vertex 14.84999999999776 -136.8002461100255 2.9999999999975953
  endloop
endfacet
facet normal 1.6192602814157908e-13 0.0 1.0
  outer loop
    vertex 11.109285559957938 -128.9437743895899 2.999999999998201
    vertex 14.84999999999776 -124.10024611002551 2.9999999999975953
    vertex 10.630472738369422 -128.3197733716543 2.9999999999982787
  endloop
endfacet
facet normal 1.6192602814157908e-13 0.0 1.0
  outer loop
    vertex 10.630472738369422 -128.3197733716543 2.9999999999982787
    vertex 14.84999999999776 -124.10024611002551 2.9999999999975953
    vertex 10.006471720433563 -127.84096055006596 2.9999999999983795
  endloop
endfacet
facet normal 1.6192602814157908e-13 0.0 1.0
  outer loop
    vertex 10.006471720433563 -127.84096055006596 2.9999999999983795
    vertex 14.84999999999776 -124.10024611002551 2.9999999999975953
    vertex 2.1500000000000723 -124.10024611002551 2.999999999999652
  endloop
endfacet
facet normal 1.6192602814157908e-13 0.0 1.0
  outer loop
    vertex 14.84999999999776 -136.8002461100255 2.9999999999975953
    vertex 11.109285559957938 -128.9437743895899 2.999999999998201
    vertex 11.41027988268358 -129.67043896571107 2.999999999998152
  endloop
endfacet
facet normal 1.6192602814157908e-13 0.0 1.0
  outer loop
    vertex 14.84999999999776 -136.8002461100255 2.9999999999975953
    vertex 11.41027988268358 -129.67043896571107 2.999999999998152
    vertex 11.51294344086914 -130.45024611002495 2.9999999999981353
  endloop
endfacet
facet normal 1.6192602814157908e-13 0.0 1.0
  outer loop
    vertex 10.006471720433563 -127.84096055006596 2.9999999999983795
    vertex 2.1500000000000723 -124.10024611002551 2.999999999999652
    vertex 9.279807144312294 -127.53996622734056 2.999999999998497
  endloop
endfacet
facet normal 1.6192602814157908e-13 0.0 1.0
  outer loop
    vertex 9.279807144312294 -127.53996622734056 2.999999999998497
    vertex 2.1500000000000723 -124.10024611002551 2.999999999999652
    vertex 8.499999999998376 -127.4373026691553 2.9999999999986233
  endloop
endfacet
facet normal 1.6192602814157908e-13 0.0 1.0
  outer loop
    vertex 8.499999999998376 -127.4373026691553 2.9999999999986233
    vertex 2.1500000000000723 -124.10024611002551 2.999999999999652
    vertex 7.720192855684441 -127.53996622734084 2.99999999999875
  endloop
endfacet
facet normal 1.6192602814157908e-13 0.0 1.0
  outer loop
    vertex 7.720192855684441 -127.53996622734084 2.99999999999875
    vertex 2.1500000000000723 -124.10024611002551 2.999999999999652
    vertex 6.993528279563318 -127.84096055006647 2.999999999998867
  endloop
endfacet
facet normal 1.6192602814157908e-13 0.0 1.0
  outer loop
    vertex 6.993528279563318 -127.84096055006647 2.999999999998867
    vertex 2.1500000000000723 -124.10024611002551 2.999999999999652
    vertex 6.369527261627685 -128.31977337165503 2.999999999998969
  endloop
endfacet
facet normal 1.6192602814157908e-13 0.0 1.0
  outer loop
    vertex 6.369527261627685 -128.31977337165503 2.999999999998969
    vertex 2.1500000000000723 -124.10024611002551 2.999999999999652
    vertex 5.89071444003933 -128.94377438959089 2.999999999999046
  endloop
endfacet
facet normal 1.6192602814157908e-13 0.0 1.0
  outer loop
    vertex 5.89071444003933 -128.94377438959089 2.999999999999046
    vertex 2.1500000000000723 -124.10024611002551 2.999999999999652
    vertex 5.589720117313972 -129.67043896571212 2.999999999999095
  endloop
endfacet
facet normal 1.6192602814157908e-13 0.0 1.0
  outer loop
    vertex 5.589720117313972 -129.67043896571212 2.999999999999095
    vertex 2.1500000000000723 -124.10024611002551 2.999999999999652
    vertex 5.487056559128688 -130.4502461100261 2.999999999999111
  endloop
endfacet
facet normal 1.6192602814157908e-13 0.0 1.0
  outer loop
    vertex 14.84999999999776 -136.8002461100255 2.9999999999975953
    vertex 10.006471720434511 -133.05953166998455 2.9999999999983795
    vertex 2.1500000000000723 -136.8002461100255 2.999999999999652
  endloop
endfacet
facet normal 1.6192602814157908e-13 0.0 1.0
  outer loop
    vertex 10.006471720434511 -133.05953166998455 2.9999999999983795
    vertex 14.84999999999776 -136.8002461100255 2.9999999999975953
    vertex 10.630472738370145 -132.580718848396 2.9999999999982787
  endloop
endfacet
facet normal 1.6192602814157908e-13 0.0 1.0
  outer loop
    vertex 10.630472738370145 -132.580718848396 2.9999999999982787
    vertex 14.84999999999776 -136.8002461100255 2.9999999999975953
    vertex 11.109285559958497 -131.95671783046015 2.999999999998201
  endloop
endfacet
facet normal 1.6192602814157908e-13 0.0 1.0
  outer loop
    vertex 11.109285559958497 -131.95671783046015 2.999999999998201
    vertex 14.84999999999776 -136.8002461100255 2.9999999999975953
    vertex 11.410279882683856 -131.23005325433888 2.999999999998152
  endloop
endfacet
facet normal 1.6192602814157908e-13 0.0 1.0
  outer loop
    vertex 11.410279882683856 -131.23005325433888 2.999999999998152
    vertex 14.84999999999776 -136.8002461100255 2.9999999999975953
    vertex 11.51294344086914 -130.45024611002495 2.9999999999981353
  endloop
endfacet
facet normal 1.6192602814157908e-13 0.0 1.0
  outer loop
    vertex 2.1500000000000723 -136.8002461100255 2.999999999999652
    vertex 10.006471720434511 -133.05953166998455 2.9999999999983795
    vertex 9.279807144313388 -133.36052599271017 2.999999999998497
  endloop
endfacet
facet normal 1.6192602814157908e-13 0.0 1.0
  outer loop
    vertex 2.1500000000000723 -136.8002461100255 2.999999999999652
    vertex 9.279807144313388 -133.36052599271017 2.999999999998497
    vertex 8.499999999999453 -133.46318955089572 2.9999999999986233
  endloop
endfacet
facet normal 1.6192602814157908e-13 0.0 1.0
  outer loop
    vertex 2.1500000000000723 -136.8002461100255 2.999999999999652
    vertex 8.499999999999453 -133.46318955089572 2.9999999999986233
    vertex 7.720192855685535 -133.36052599271048 2.99999999999875
  endloop
endfacet
facet normal 1.6192602814157908e-13 0.0 1.0
  outer loop
    vertex 2.1500000000000723 -136.8002461100255 2.999999999999652
    vertex 7.720192855685535 -133.36052599271048 2.99999999999875
    vertex 6.993528279564265 -133.05953166998506 2.999999999998867
  endloop
endfacet
facet normal 1.6192602814157908e-13 0.0 1.0
  outer loop
    vertex 2.1500000000000723 -136.8002461100255 2.999999999999652
    vertex 6.993528279564265 -133.05953166998506 2.999999999998867
    vertex 6.369527261628407 -132.58071884839674 2.999999999998969
  endloop
endfacet
facet normal 1.6192602814157908e-13 0.0 1.0
  outer loop
    vertex 2.1500000000000723 -136.8002461100255 2.999999999999652
    vertex 6.369527261628407 -132.58071884839674 2.999999999998969
    vertex 5.890714440039892 -131.95671783046114 2.999999999999046
  endloop
endfacet
facet normal 1.6192602814157908e-13 0.0 1.0
  outer loop
    vertex 2.1500000000000723 -136.8002461100255 2.999999999999652
    vertex 5.890714440039892 -131.95671783046114 2.999999999999046
    vertex 5.589720117314249 -131.23005325433996 2.999999999999095
  endloop
endfacet
facet normal 1.6192602814157908e-13 0.0 1.0
  outer loop
    vertex 2.1500000000000723 -136.8002461100255 2.999999999999652
    vertex 5.589720117314249 -131.23005325433996 2.999999999999095
    vertex 5.487056559128688 -130.4502461100261 2.999999999999111
  endloop
endfacet
facet normal 1.6192602814157908e-13 0.0 1.0
  outer loop
    vertex 2.1500000000000723 -136.8002461100255 2.999999999999652
    vertex 5.487056559128688 -130.4502461100261 2.999999999999111
    vertex 2.1500000000000723 -124.10024611002551 2.999999999999652
  endloop
endfacet
facet normal 0.7933533402913393 -0.6087614290085848 -1.284645553062312e-13
  outer loop
    vertex 7.4393398282184195 -129.3895859382459 -1.2048306796685892e-12
    vertex 7.200961894321798 -129.70024611002574 0.9999999999988346
    vertex 7.200961894321638 -129.70024611002574 -1.1660561405335556e-12
  endloop
endfacet
facet normal 0.7933533402913393 -0.6087614290085848 -1.284645553062312e-13
  outer loop
    vertex 7.200961894321798 -129.70024611002574 0.9999999999988346
    vertex 7.4393398282184195 -129.3895859382459 -1.2048306796685892e-12
    vertex 7.43933982821858 -129.3895859382459 0.9999999999987962
  endloop
endfacet
facet normal -0.38268343236493496 -0.9238795325113509 6.196640823844053e-14
  outer loop
    vertex 8.888228567651948 -129.00135737059185 -1.4395928893407016e-12
    vertex 9.249999999998355 -129.15120800434872 0.9999999999985029
    vertex 8.888228567652108 -129.00135737059185 0.9999999999985614
  endloop
endfacet
facet normal -0.38268343236493496 -0.9238795325113509 6.196640823844053e-14
  outer loop
    vertex 9.249999999998355 -129.15120800434872 0.9999999999985029
    vertex 8.888228567651948 -129.00135737059185 -1.4395928893407016e-12
    vertex 9.249999999998193 -129.15120800434872 -1.4981071938535706e-12
  endloop
endfacet
facet normal 0.1305261922202173 -0.9914448613737886 -2.1135587874664067e-14
  outer loop
    vertex 8.111771432344385 -129.001357370592 -1.3141043808673202e-12
    vertex 8.49999999999832 -128.95024611002552 0.9999999999986245
    vertex 8.111771432344547 -129.001357370592 0.9999999999986873
  endloop
endfacet
facet normal 0.1305261922202173 -0.9914448613737886 -2.1135587874664067e-14
  outer loop
    vertex 8.49999999999832 -128.95024611002552 0.9999999999986245
    vertex 8.111771432344385 -129.001357370592 -1.3141043808673202e-12
    vertex 8.499999999998158 -128.95024611002552 -1.376848635104011e-12
  endloop
endfacet
facet normal 7.241552125022288e-14 0.8944271909999162 0.4472135954999575
  outer loop
    vertex 16.349999999997763 -122.60024611002551 2.9999999999973523
    vertex 1.1500000000002348 -123.10024611002551 3.9999999999998135
    vertex 15.849999999997921 -123.10024611002551 3.9999999999974327
  endloop
endfacet
facet normal 7.241552125022288e-14 0.8944271909999162 0.4472135954999575
  outer loop
    vertex 1.1500000000002348 -123.10024611002551 3.9999999999998135
    vertex 16.349999999997763 -122.60024611002551 2.9999999999973523
    vertex 0.6500000000000721 -122.60024611002551 2.9999999999998943
  endloop
endfacet
facet normal 0.991444861373787 0.13052619222022957 -1.605407285236358e-13
  outer loop
    vertex 6.999999999998432 -130.45024611002577 -1.1336265259842548e-12
    vertex 7.051111260565061 -130.83847467767956 0.9999999999988589
    vertex 7.0511112605649 -130.83847467767956 -1.1420864254318985e-12
  endloop
endfacet
facet normal 0.991444861373787 0.13052619222022957 -1.605407285236358e-13
  outer loop
    vertex 7.051111260565061 -130.83847467767956 0.9999999999988589
    vertex 6.999999999998432 -130.45024611002577 -1.1336265259842548e-12
    vertex 6.999999999998593 -130.45024611002577 0.9999999999988674
  endloop
endfacet
facet normal -0.991444861373787 -0.13052619222022957 1.605407285236358e-13
  outer loop
    vertex 9.94888873943212 -130.06201754237145 0.9999999999983897
    vertex 9.999999999998426 -130.45024611002523 -1.61936575260313e-12
    vertex 9.999999999998588 -130.45024611002523 0.9999999999983816
  endloop
endfacet
facet normal -0.991444861373787 -0.13052619222022957 1.605407285236358e-13
  outer loop
    vertex 9.999999999998426 -130.45024611002523 -1.61936575260313e-12
    vertex 9.94888873943212 -130.06201754237145 0.9999999999983897
    vertex 9.948888739431958 -130.06201754237145 -1.6109058531554865e-12
  endloop
endfacet
facet normal 0.0 1.0 0.0
  outer loop
    vertex 14.84999999999776 -136.8002461100255 2.9999999999975953
    vertex 2.150000000000233 -136.8002461100255 3.9999999999996514
    vertex 14.84999999999792 -136.8002461100255 3.999999999997595
  endloop
endfacet
facet normal 0.0 1.0 0.0
  outer loop
    vertex 2.150000000000233 -136.8002461100255 3.9999999999996514
    vertex 14.84999999999776 -136.8002461100255 2.9999999999975953
    vertex 2.1500000000000723 -136.8002461100255 2.999999999999652
  endloop
endfacet
facet normal -1.0 0.0 1.6192602814157908e-13
  outer loop
    vertex 14.84999999999792 -124.10024611002551 3.999999999997595
    vertex 14.84999999999776 -136.8002461100255 2.9999999999975953
    vertex 14.84999999999792 -136.8002461100255 3.999999999997595
  endloop
endfacet
facet normal -1.0 0.0 1.6192602814157908e-13
  outer loop
    vertex 14.84999999999776 -136.8002461100255 2.9999999999975953
    vertex 14.84999999999792 -124.10024611002551 3.999999999997595
    vertex 14.84999999999776 -124.10024611002551 2.9999999999975953
  endloop
endfacet
facet normal 0.38268343236493496 0.9238795325113509 -6.196640823844053e-14
  outer loop
    vertex 8.11177143234491 -131.8991348494592 -1.3141043808673202e-12
    vertex 7.749999999998825 -131.7492842157023 0.9999999999987458
    vertex 8.111771432345071 -131.8991348494592 0.9999999999986873
  endloop
endfacet
facet normal 0.38268343236493496 0.9238795325113509 -6.196640823844053e-14
  outer loop
    vertex 7.749999999998825 -131.7492842157023 0.9999999999987458
    vertex 8.11177143234491 -131.8991348494592 -1.3141043808673202e-12
    vertex 7.749999999998665 -131.7492842157023 -1.2548850847338144e-12
  endloop
endfacet
facet normal 0.6087614290085813 0.793353340291342 -9.857432028515143e-14
  outer loop
    vertex 7.749999999998665 -131.7492842157023 -1.2548850847338144e-12
    vertex 7.439339828218963 -131.51090628180552 0.9999999999987962
    vertex 7.749999999998825 -131.7492842157023 0.9999999999987458
  endloop
endfacet
facet normal 0.6087614290085813 0.793353340291342 -9.857432028515143e-14
  outer loop
    vertex 7.439339828218963 -131.51090628180552 0.9999999999987962
    vertex 7.749999999998665 -131.7492842157023 -1.2548850847338144e-12
    vertex 7.439339828218802 -131.51090628180552 -1.2048306796685892e-12
  endloop
endfacet
facet normal 1.0 0.0 -1.6192602814157908e-13
  outer loop
    vertex 2.1500000000000723 -124.10024611002551 2.999999999999652
    vertex 2.150000000000233 -136.8002461100255 3.9999999999996514
    vertex 2.1500000000000723 -136.8002461100255 2.999999999999652
  endloop
endfacet
facet normal 1.0 0.0 -1.6192602814157908e-13
  outer loop
    vertex 2.150000000000233 -136.8002461100255 3.9999999999996514
    vertex 2.1500000000000723 -124.10024611002551 2.999999999999652
    vertex 2.150000000000233 -124.10024611002551 3.9999999999996514
  endloop
endfacet
facet normal -0.1305261922198719 -0.991444861373834 2.113558787460814e-14
  outer loop
    vertex 8.499999999998158 -128.95024611002552 -1.376848635104011e-12
    vertex 8.888228567652108 -129.00135737059185 0.9999999999985614
    vertex 8.49999999999832 -128.95024611002552 0.9999999999986245
  endloop
endfacet
facet normal -0.1305261922198719 -0.991444861373834 2.113558787460814e-14
  outer loop
    vertex 8.888228567652108 -129.00135737059185 0.9999999999985614
    vertex 8.499999999998158 -128.95024611002552 -1.376848635104011e-12
    vertex 8.888228567651948 -129.00135737059185 -1.4395928893407016e-12
  endloop
endfacet
facet normal 7.241552125022288e-14 -0.8944271909999162 0.4472135954999575
  outer loop
    vertex 0.6500000000000721 -138.3002461100255 2.9999999999998943
    vertex 15.849999999997921 -137.8002461100255 3.9999999999974327
    vertex 1.1500000000002348 -137.8002461100255 3.9999999999998135
  endloop
endfacet
facet normal 7.241552125022288e-14 -0.8944271909999162 0.4472135954999575
  outer loop
    vertex 15.849999999997921 -137.8002461100255 3.9999999999974327
    vertex 0.6500000000000721 -138.3002461100255 2.9999999999998943
    vertex 16.349999999997763 -138.3002461100255 2.9999999999973523
  endloop
endfacet
facet normal 0.9914448613738337 -0.13052619221987566 -1.6054072852364336e-13
  outer loop
    vertex 7.051111260564759 -130.06201754237202 -1.1420864254318985e-12
    vertex 6.999999999998593 -130.45024611002577 0.9999999999988674
    vertex 6.999999999998432 -130.45024611002577 -1.1336265259842548e-12
  endloop
endfacet
facet normal 0.9914448613738337 -0.13052619221987566 -1.6054072852364336e-13
  outer loop
    vertex 6.999999999998593 -130.45024611002577 0.9999999999988674
    vertex 7.051111260564759 -130.06201754237202 -1.1420864254318985e-12
    vertex 7.0511112605649195 -130.06201754237202 0.9999999999988589
  endloop
endfacet
facet normal -0.9238795325112167 -0.38268343236525887 1.496001431808402e-13
  outer loop
    vertex 9.79903810567511 -129.7002461100253 0.999999999998414
    vertex 9.948888739431958 -130.06201754237145 -1.6109058531554865e-12
    vertex 9.94888873943212 -130.06201754237145 0.9999999999983897
  endloop
endfacet
facet normal -0.9238795325112167 -0.38268343236525887 1.496001431808402e-13
  outer loop
    vertex 9.948888739431958 -130.06201754237145 -1.6109058531554865e-12
    vertex 9.79903810567511 -129.7002461100253 0.999999999998414
    vertex 9.79903810567495 -129.7002461100253 -1.5869361380538292e-12
  endloop
endfacet
facet normal -0.9238795325113592 0.3826834323649151 1.4960014318086328e-13
  outer loop
    vertex 9.94888873943226 -130.83847467767902 0.9999999999983897
    vertex 9.799038105675221 -131.20024611002526 -1.5869361380538292e-12
    vertex 9.79903810567538 -131.20024611002526 0.999999999998414
  endloop
endfacet
facet normal -0.9238795325113592 0.3826834323649151 1.4960014318086328e-13
  outer loop
    vertex 9.799038105675221 -131.20024611002526 -1.5869361380538292e-12
    vertex 9.94888873943226 -130.83847467767902 0.9999999999983897
    vertex 9.9488887394321 -130.83847467767902 -1.6109058531554865e-12
  endloop
endfacet
facet normal -0.382683432365281 0.9238795325112077 6.196640823849657e-14
  outer loop
    vertex 9.249999999998662 -131.74928421570203 -1.4981071938535706e-12
    vertex 8.888228567652634 -131.89913484945905 0.9999999999985614
    vertex 9.249999999998822 -131.74928421570203 0.9999999999985029
  endloop
endfacet
facet normal -0.382683432365281 0.9238795325112077 6.196640823849657e-14
  outer loop
    vertex 8.888228567652634 -131.89913484945905 0.9999999999985614
    vertex 9.249999999998662 -131.74928421570203 -1.4981071938535706e-12
    vertex 8.888228567652472 -131.89913484945905 -1.4395928893407016e-12
  endloop
endfacet
facet normal -0.608761429008867 0.7933533402911228 9.857432028519769e-14
  outer loop
    vertex 9.560660171778439 -131.51090628180512 -1.5481615989187956e-12
    vertex 9.249999999998822 -131.74928421570203 0.9999999999985029
    vertex 9.5606601717786 -131.51090628180512 0.9999999999984525
  endloop
endfacet
facet normal -0.608761429008867 0.7933533402911228 9.857432028519769e-14
  outer loop
    vertex 9.249999999998822 -131.74928421570203 0.9999999999985029
    vertex 9.560660171778439 -131.51090628180512 -1.5481615989187956e-12
    vertex 9.249999999998662 -131.74928421570203 -1.4981071938535706e-12
  endloop
endfacet
facet normal 0.9238795325112167 0.38268343236525887 -1.496001431808402e-13
  outer loop
    vertex 7.0511112605649 -130.83847467767956 -1.1420864254318985e-12
    vertex 7.200961894322069 -131.20024611002574 0.9999999999988346
    vertex 7.2009618943219085 -131.20024611002574 -1.1660561405335556e-12
  endloop
endfacet
facet normal 0.9238795325112167 0.38268343236525887 -1.496001431808402e-13
  outer loop
    vertex 7.200961894322069 -131.20024611002574 0.9999999999988346
    vertex 7.0511112605649 -130.83847467767956 -1.1420864254318985e-12
    vertex 7.051111260565061 -130.83847467767956 0.9999999999988589
  endloop
endfacet
facet normal 0.9238795325113592 -0.3826834323649151 -1.4960014318086328e-13
  outer loop
    vertex 7.200961894321638 -129.70024611002574 -1.1660561405335556e-12
    vertex 7.0511112605649195 -130.06201754237202 0.9999999999988589
    vertex 7.051111260564759 -130.06201754237202 -1.1420864254318985e-12
  endloop
endfacet
facet normal 0.9238795325113592 -0.3826834323649151 -1.4960014318086328e-13
  outer loop
    vertex 7.0511112605649195 -130.06201754237202 0.9999999999988589
    vertex 7.200961894321638 -129.70024611002574 -1.1660561405335556e-12
    vertex 7.200961894321798 -129.70024611002574 0.9999999999988346
  endloop
endfacet
facet normal 0.382683432365281 -0.9238795325112077 -6.196640823849657e-14
  outer loop
    vertex 7.749999999998196 -129.151208004349 -1.2548850847338144e-12
    vertex 8.111771432344547 -129.001357370592 0.9999999999986873
    vertex 7.749999999998357 -129.151208004349 0.9999999999987458
  endloop
endfacet
facet normal 0.382683432365281 -0.9238795325112077 -6.196640823849657e-14
  outer loop
    vertex 8.111771432344547 -129.001357370592 0.9999999999986873
    vertex 7.749999999998196 -129.151208004349 -1.2548850847338144e-12
    vertex 8.111771432344385 -129.001357370592 -1.3141043808673202e-12
  endloop
endfacet
facet normal -0.7933533402911148 -0.6087614290088774 1.2846455530619484e-13
  outer loop
    vertex 9.560660171778217 -129.38958593824552 0.9999999999984525
    vertex 9.79903810567495 -129.7002461100253 -1.5869361380538292e-12
    vertex 9.79903810567511 -129.7002461100253 0.999999999998414
  endloop
endfacet
facet normal -0.7933533402911148 -0.6087614290088774 1.2846455530619484e-13
  outer loop
    vertex 9.79903810567495 -129.7002461100253 -1.5869361380538292e-12
    vertex 9.560660171778217 -129.38958593824552 0.9999999999984525
    vertex 9.560660171778055 -129.38958593824552 -1.5481615989187956e-12
  endloop
endfacet
facet normal -0.1305261922202173 0.9914448613737886 2.1135587874664067e-14
  outer loop
    vertex 8.888228567652472 -131.89913484945905 -1.4395928893407016e-12
    vertex 8.499999999998861 -131.95024611002552 0.9999999999986245
    vertex 8.888228567652634 -131.89913484945905 0.9999999999985614
  endloop
endfacet
facet normal -0.1305261922202173 0.9914448613737886 2.1135587874664067e-14
  outer loop
    vertex 8.499999999998861 -131.95024611002552 0.9999999999986245
    vertex 8.888228567652472 -131.89913484945905 -1.4395928893407016e-12
    vertex 8.4999999999987 -131.95024611002552 -1.376848635104011e-12
  endloop
endfacet
facet normal 1.6192602814157908e-13 0.0 1.0
  outer loop
    vertex 10.00647172043324 -127.84096055006596 0.9999999999983805
    vertex 9.94888873943212 -130.06201754237145 0.9999999999983897
    vertex 9.999999999998588 -130.45024611002523 0.9999999999983816
  endloop
endfacet
facet normal 1.6192602814157908e-13 0.0 1.0
  outer loop
    vertex 9.94888873943212 -130.06201754237145 0.9999999999983897
    vertex 10.00647172043324 -127.84096055006596 0.9999999999983805
    vertex 9.27980714431197 -127.53996622734056 0.999999999998498
  endloop
endfacet
facet normal 1.6192602814157908e-13 0.0 1.0
  outer loop
    vertex 9.94888873943212 -130.06201754237145 0.9999999999983897
    vertex 9.27980714431197 -127.53996622734056 0.999999999998498
    vertex 9.79903810567511 -129.7002461100253 0.999999999998414
  endloop
endfacet
facet normal 1.6192602814157908e-13 0.0 1.0
  outer loop
    vertex 9.79903810567511 -129.7002461100253 0.999999999998414
    vertex 9.27980714431197 -127.53996622734056 0.999999999998498
    vertex 9.560660171778217 -129.38958593824552 0.9999999999984525
  endloop
endfacet
facet normal 1.6192602814157908e-13 0.0 1.0
  outer loop
    vertex 9.560660171778217 -129.38958593824552 0.9999999999984525
    vertex 9.27980714431197 -127.53996622734056 0.999999999998498
    vertex 9.249999999998355 -129.15120800434872 0.9999999999985029
  endloop
endfacet
facet normal 1.6192602814157908e-13 0.0 1.0
  outer loop
    vertex 9.249999999998355 -129.15120800434872 0.9999999999985029
    vertex 9.27980714431197 -127.53996622734056 0.999999999998498
    vertex 8.499999999998051 -127.4373026691553 0.9999999999986245
  endloop
endfacet
facet normal 1.6192602814157908e-13 0.0 1.0
  outer loop
    vertex 9.249999999998355 -129.15120800434872 0.9999999999985029
    vertex 8.499999999998051 -127.4373026691553 0.9999999999986245
    vertex 8.888228567652108 -129.00135737059185 0.9999999999985614
  endloop
endfacet
facet normal 1.6192602814157908e-13 0.0 1.0
  outer loop
    vertex 8.888228567652108 -129.00135737059185 0.9999999999985614
    vertex 8.499999999998051 -127.4373026691553 0.9999999999986245
    vertex 8.49999999999832 -128.95024611002552 0.9999999999986245
  endloop
endfacet
facet normal 1.6192602814157908e-13 0.0 1.0
  outer loop
    vertex 8.49999999999832 -128.95024611002552 0.9999999999986245
    vertex 8.499999999998051 -127.4373026691553 0.9999999999986245
    vertex 8.111771432344547 -129.001357370592 0.9999999999986873
  endloop
endfacet
facet normal 1.6192602814157908e-13 0.0 1.0
  outer loop
    vertex 8.111771432344547 -129.001357370592 0.9999999999986873
    vertex 8.499999999998051 -127.4373026691553 0.9999999999986245
    vertex 7.720192855684116 -127.53996622734084 0.9999999999987507
  endloop
endfacet
facet normal 1.6192602814157908e-13 0.0 1.0
  outer loop
    vertex 8.111771432344547 -129.001357370592 0.9999999999986873
    vertex 7.720192855684116 -127.53996622734084 0.9999999999987507
    vertex 7.749999999998357 -129.151208004349 0.9999999999987458
  endloop
endfacet
facet normal 1.6192602814157908e-13 0.0 1.0
  outer loop
    vertex 7.749999999998357 -129.151208004349 0.9999999999987458
    vertex 7.720192855684116 -127.53996622734084 0.9999999999987507
    vertex 7.43933982821858 -129.3895859382459 0.9999999999987962
  endloop
endfacet
facet normal 1.6192602814157908e-13 0.0 1.0
  outer loop
    vertex 7.43933982821858 -129.3895859382459 0.9999999999987962
    vertex 7.720192855684116 -127.53996622734084 0.9999999999987507
    vertex 6.993528279562993 -127.84096055006647 0.9999999999988685
  endloop
endfacet
facet normal 1.6192602814157908e-13 0.0 1.0
  outer loop
    vertex 7.43933982821858 -129.3895859382459 0.9999999999987962
    vertex 6.993528279562993 -127.84096055006647 0.9999999999988685
    vertex 7.200961894321798 -129.70024611002574 0.9999999999988346
  endloop
endfacet
facet normal 1.6192602814157908e-13 0.0 1.0
  outer loop
    vertex 7.200961894321798 -129.70024611002574 0.9999999999988346
    vertex 6.993528279562993 -127.84096055006647 0.9999999999988685
    vertex 7.0511112605649195 -130.06201754237202 0.9999999999988589
  endloop
endfacet
facet normal 1.6192602814157908e-13 0.0 1.0
  outer loop
    vertex 7.0511112605649195 -130.06201754237202 0.9999999999988589
    vertex 6.993528279562993 -127.84096055006647 0.9999999999988685
    vertex 6.999999999998593 -130.45024611002577 0.9999999999988674
  endloop
endfacet
facet normal 1.6192602814157908e-13 0.0 1.0
  outer loop
    vertex 6.999999999998593 -130.45024611002577 0.9999999999988674
    vertex 6.993528279562993 -127.84096055006647 0.9999999999988685
    vertex 6.99352827956394 -133.05953166998506 0.9999999999988685
  endloop
endfacet
facet normal 1.6192602814157908e-13 0.0 1.0
  outer loop
    vertex 6.99352827956394 -133.05953166998506 0.9999999999988685
    vertex 6.993528279562993 -127.84096055006647 0.9999999999988685
    vertex 6.369527261628082 -132.58071884839674 0.9999999999989693
  endloop
endfacet
facet normal 1.6192602814157908e-13 0.0 1.0
  outer loop
    vertex 6.369527261628082 -132.58071884839674 0.9999999999989693
    vertex 6.993528279562993 -127.84096055006647 0.9999999999988685
    vertex 6.36952726162736 -128.31977337165503 0.9999999999989693
  endloop
endfacet
facet normal 1.6192602814157908e-13 0.0 1.0
  outer loop
    vertex 6.369527261628082 -132.58071884839674 0.9999999999989693
    vertex 6.36952726162736 -128.31977337165503 0.9999999999989693
    vertex 5.8907144400395675 -131.95671783046114 0.9999999999990468
  endloop
endfacet
facet normal 1.6192602814157908e-13 0.0 1.0
  outer loop
    vertex 5.8907144400395675 -131.95671783046114 0.9999999999990468
    vertex 6.36952726162736 -128.31977337165503 0.9999999999989693
    vertex 5.890714440039006 -128.94377438959089 0.9999999999990468
  endloop
endfacet
facet normal 1.6192602814157908e-13 0.0 1.0
  outer loop
    vertex 5.8907144400395675 -131.95671783046114 0.9999999999990468
    vertex 5.890714440039006 -128.94377438959089 0.9999999999990468
    vertex 5.589720117313924 -131.23005325433996 0.9999999999990957
  endloop
endfacet
facet normal 1.6192602814157908e-13 0.0 1.0
  outer loop
    vertex 5.589720117313924 -131.23005325433996 0.9999999999990957
    vertex 5.890714440039006 -128.94377438959089 0.9999999999990468
    vertex 5.5897201173136475 -129.67043896571212 0.9999999999990957
  endloop
endfacet
facet normal 1.6192602814157908e-13 0.0 1.0
  outer loop
    vertex 5.589720117313924 -131.23005325433996 0.9999999999990957
    vertex 5.5897201173136475 -129.67043896571212 0.9999999999990957
    vertex 5.487056559128363 -130.4502461100261 0.9999999999991124
  endloop
endfacet
facet normal 1.6192602814157908e-13 0.0 1.0
  outer loop
    vertex 11.410279882683257 -129.67043896571107 0.9999999999981533
    vertex 11.410279882683534 -131.23005325433888 0.9999999999981533
    vertex 11.512943440868817 -130.45024611002495 0.9999999999981366
  endloop
endfacet
facet normal 1.6192602814157908e-13 0.0 1.0
  outer loop
    vertex 11.410279882683534 -131.23005325433888 0.9999999999981533
    vertex 11.410279882683257 -129.67043896571107 0.9999999999981533
    vertex 11.109285559958176 -131.95671783046015 0.9999999999982019
  endloop
endfacet
facet normal 1.6192602814157908e-13 0.0 1.0
  outer loop
    vertex 11.109285559958176 -131.95671783046015 0.9999999999982019
    vertex 11.410279882683257 -129.67043896571107 0.9999999999981533
    vertex 11.109285559957614 -128.9437743895899 0.9999999999982019
  endloop
endfacet
facet normal 1.6192602814157908e-13 0.0 1.0
  outer loop
    vertex 11.109285559958176 -131.95671783046015 0.9999999999982019
    vertex 11.109285559957614 -128.9437743895899 0.9999999999982019
    vertex 10.63047273836982 -132.580718848396 0.9999999999982794
  endloop
endfacet
facet normal 1.6192602814157908e-13 0.0 1.0
  outer loop
    vertex 10.63047273836982 -132.580718848396 0.9999999999982794
    vertex 11.109285559957614 -128.9437743895899 0.9999999999982019
    vertex 10.630472738369098 -128.3197733716543 0.9999999999982794
  endloop
endfacet
facet normal 1.6192602814157908e-13 0.0 1.0
  outer loop
    vertex 10.63047273836982 -132.580718848396 0.9999999999982794
    vertex 10.630472738369098 -128.3197733716543 0.9999999999982794
    vertex 10.006471720434186 -133.05953166998455 0.9999999999983805
  endloop
endfacet
facet normal 1.6192602814157908e-13 0.0 1.0
  outer loop
    vertex 10.006471720434186 -133.05953166998455 0.9999999999983805
    vertex 10.630472738369098 -128.3197733716543 0.9999999999982794
    vertex 10.00647172043324 -127.84096055006596 0.9999999999983805
  endloop
endfacet
facet normal 1.6192602814157908e-13 0.0 1.0
  outer loop
    vertex 10.006471720434186 -133.05953166998455 0.9999999999983805
    vertex 10.00647172043324 -127.84096055006596 0.9999999999983805
    vertex 9.999999999998588 -130.45024611002523 0.9999999999983816
  endloop
endfacet
facet normal 1.6192602814157908e-13 0.0 1.0
  outer loop
    vertex 10.006471720434186 -133.05953166998455 0.9999999999983805
    vertex 9.999999999998588 -130.45024611002523 0.9999999999983816
    vertex 9.94888873943226 -130.83847467767902 0.9999999999983897
  endloop
endfacet
facet normal 1.6192602814157908e-13 0.0 1.0
  outer loop
    vertex 10.006471720434186 -133.05953166998455 0.9999999999983805
    vertex 9.94888873943226 -130.83847467767902 0.9999999999983897
    vertex 9.279807144313065 -133.36052599271017 0.999999999998498
  endloop
endfacet
facet normal 1.6192602814157908e-13 0.0 1.0
  outer loop
    vertex 9.279807144313065 -133.36052599271017 0.999999999998498
    vertex 9.94888873943226 -130.83847467767902 0.9999999999983897
    vertex 9.79903810567538 -131.20024611002526 0.999999999998414
  endloop
endfacet
facet normal 1.6192602814157908e-13 0.0 1.0
  outer loop
    vertex 9.279807144313065 -133.36052599271017 0.999999999998498
    vertex 9.79903810567538 -131.20024611002526 0.999999999998414
    vertex 9.5606601717786 -131.51090628180512 0.9999999999984525
  endloop
endfacet
facet normal 1.6192602814157908e-13 0.0 1.0
  outer loop
    vertex 9.279807144313065 -133.36052599271017 0.999999999998498
    vertex 9.5606601717786 -131.51090628180512 0.9999999999984525
    vertex 9.249999999998822 -131.74928421570203 0.9999999999985029
  endloop
endfacet
facet normal 1.6192602814157908e-13 0.0 1.0
  outer loop
    vertex 9.279807144313065 -133.36052599271017 0.999999999998498
    vertex 9.249999999998822 -131.74928421570203 0.9999999999985029
    vertex 8.499999999999128 -133.46318955089572 0.9999999999986245
  endloop
endfacet
facet normal 1.6192602814157908e-13 0.0 1.0
  outer loop
    vertex 8.499999999999128 -133.46318955089572 0.9999999999986245
    vertex 9.249999999998822 -131.74928421570203 0.9999999999985029
    vertex 8.888228567652634 -131.89913484945905 0.9999999999985614
  endloop
endfacet
facet normal 1.6192602814157908e-13 0.0 1.0
  outer loop
    vertex 8.499999999999128 -133.46318955089572 0.9999999999986245
    vertex 8.888228567652634 -131.89913484945905 0.9999999999985614
    vertex 8.499999999998861 -131.95024611002552 0.9999999999986245
  endloop
endfacet
facet normal 1.6192602814157908e-13 0.0 1.0
  outer loop
    vertex 8.499999999999128 -133.46318955089572 0.9999999999986245
    vertex 8.499999999998861 -131.95024611002552 0.9999999999986245
    vertex 7.720192855685211 -133.36052599271048 0.9999999999987507
  endloop
endfacet
facet normal 1.6192602814157908e-13 0.0 1.0
  outer loop
    vertex 7.720192855685211 -133.36052599271048 0.9999999999987507
    vertex 8.499999999998861 -131.95024611002552 0.9999999999986245
    vertex 8.111771432345071 -131.8991348494592 0.9999999999986873
  endloop
endfacet
facet normal 1.6192602814157908e-13 0.0 1.0
  outer loop
    vertex 7.720192855685211 -133.36052599271048 0.9999999999987507
    vertex 8.111771432345071 -131.8991348494592 0.9999999999986873
    vertex 7.749999999998825 -131.7492842157023 0.9999999999987458
  endloop
endfacet
facet normal 1.6192602814157908e-13 0.0 1.0
  outer loop
    vertex 7.720192855685211 -133.36052599271048 0.9999999999987507
    vertex 7.749999999998825 -131.7492842157023 0.9999999999987458
    vertex 7.439339828218963 -131.51090628180552 0.9999999999987962
  endloop
endfacet
facet normal 1.6192602814157908e-13 0.0 1.0
  outer loop
    vertex 7.720192855685211 -133.36052599271048 0.9999999999987507
    vertex 7.439339828218963 -131.51090628180552 0.9999999999987962
    vertex 6.99352827956394 -133.05953166998506 0.9999999999988685
  endloop
endfacet
facet normal 1.6192602814157908e-13 0.0 1.0
  outer loop
    vertex 6.99352827956394 -133.05953166998506 0.9999999999988685
    vertex 7.439339828218963 -131.51090628180552 0.9999999999987962
    vertex 7.200961894322069 -131.20024611002574 0.9999999999988346
  endloop
endfacet
facet normal 1.6192602814157908e-13 0.0 1.0
  outer loop
    vertex 6.99352827956394 -133.05953166998506 0.9999999999988685
    vertex 7.200961894322069 -131.20024611002574 0.9999999999988346
    vertex 7.051111260565061 -130.83847467767956 0.9999999999988589
  endloop
endfacet
facet normal 1.6192602814157908e-13 0.0 1.0
  outer loop
    vertex 6.99352827956394 -133.05953166998506 0.9999999999988685
    vertex 7.051111260565061 -130.83847467767956 0.9999999999988589
    vertex 6.999999999998593 -130.45024611002577 0.9999999999988674
  endloop
endfacet
facet normal -0.6087614290088736 0.7933533402911177 9.857432028519876e-14
  outer loop
    vertex 10.63047273836982 -132.580718848396 0.9999999999982794
    vertex 10.006471720434511 -133.05953166998455 2.9999999999983795
    vertex 10.630472738370145 -132.580718848396 2.9999999999982787
  endloop
endfacet
facet normal -0.6087614290088736 0.7933533402911177 9.857432028519876e-14
  outer loop
    vertex 10.006471720434511 -133.05953166998455 2.9999999999983795
    vertex 10.63047273836982 -132.580718848396 0.9999999999982794
    vertex 10.006471720434186 -133.05953166998455 0.9999999999983805
  endloop
endfacet
facet normal -0.7933533402913419 0.6087614290085817 1.284645553062316e-13
  outer loop
    vertex 11.109285559958497 -131.95671783046015 2.999999999998201
    vertex 10.63047273836982 -132.580718848396 0.9999999999982794
    vertex 10.630472738370145 -132.580718848396 2.9999999999982787
  endloop
endfacet
facet normal -0.7933533402913419 0.6087614290085817 1.284645553062316e-13
  outer loop
    vertex 10.63047273836982 -132.580718848396 0.9999999999982794
    vertex 11.109285559958497 -131.95671783046015 2.999999999998201
    vertex 11.109285559958176 -131.95671783046015 0.9999999999982019
  endloop
endfacet
facet normal -0.9238795325113591 0.3826834323649153 1.4960014318086326e-13
  outer loop
    vertex 11.410279882683856 -131.23005325433888 2.999999999998152
    vertex 11.109285559958176 -131.95671783046015 0.9999999999982019
    vertex 11.109285559958497 -131.95671783046015 2.999999999998201
  endloop
endfacet
facet normal -0.9238795325113591 0.3826834323649153 1.4960014318086326e-13
  outer loop
    vertex 11.109285559958176 -131.95671783046015 0.9999999999982019
    vertex 11.410279882683856 -131.23005325433888 2.999999999998152
    vertex 11.410279882683534 -131.23005325433888 0.9999999999981533
  endloop
endfacet
facet normal -0.9914448613738338 0.13052619221987452 1.6054072852364338e-13
  outer loop
    vertex 11.51294344086914 -130.45024611002495 2.9999999999981353
    vertex 11.410279882683534 -131.23005325433888 0.9999999999981533
    vertex 11.410279882683856 -131.23005325433888 2.999999999998152
  endloop
endfacet
facet normal -0.9914448613738338 0.13052619221987452 1.6054072852364338e-13
  outer loop
    vertex 11.410279882683534 -131.23005325433888 0.9999999999981533
    vertex 11.51294344086914 -130.45024611002495 2.9999999999981353
    vertex 11.512943440868817 -130.45024611002495 0.9999999999981366
  endloop
endfacet
facet normal -0.9914448613737868 -0.130526192220231 1.6054072852363578e-13
  outer loop
    vertex 11.41027988268358 -129.67043896571107 2.999999999998152
    vertex 11.512943440868817 -130.45024611002495 0.9999999999981366
    vertex 11.51294344086914 -130.45024611002495 2.9999999999981353
  endloop
endfacet
facet normal -0.9914448613737868 -0.130526192220231 1.6054072852363578e-13
  outer loop
    vertex 11.512943440868817 -130.45024611002495 0.9999999999981366
    vertex 11.41027988268358 -129.67043896571107 2.999999999998152
    vertex 11.410279882683257 -129.67043896571107 0.9999999999981533
  endloop
endfacet
facet normal -0.9238795325112183 -0.38268343236525476 1.496001431808405e-13
  outer loop
    vertex 11.109285559957938 -128.9437743895899 2.999999999998201
    vertex 11.410279882683257 -129.67043896571107 0.9999999999981533
    vertex 11.41027988268358 -129.67043896571107 2.999999999998152
  endloop
endfacet
facet normal -0.9238795325112183 -0.38268343236525476 1.496001431808405e-13
  outer loop
    vertex 11.410279882683257 -129.67043896571107 0.9999999999981533
    vertex 11.109285559957938 -128.9437743895899 2.999999999998201
    vertex 11.109285559957614 -128.9437743895899 0.9999999999982019
  endloop
endfacet
facet normal -0.7933533402911155 -0.6087614290088765 1.2846455530619494e-13
  outer loop
    vertex 10.630472738369422 -128.3197733716543 2.9999999999982787
    vertex 11.109285559957614 -128.9437743895899 0.9999999999982019
    vertex 11.109285559957938 -128.9437743895899 2.999999999998201
  endloop
endfacet
facet normal -0.7933533402911155 -0.6087614290088765 1.2846455530619494e-13
  outer loop
    vertex 11.109285559957614 -128.9437743895899 0.9999999999982019
    vertex 10.630472738369422 -128.3197733716543 2.9999999999982787
    vertex 10.630472738369098 -128.3197733716543 0.9999999999982794
  endloop
endfacet
facet normal -0.6087614290085727 -0.7933533402913486 9.857432028515003e-14
  outer loop
    vertex 10.00647172043324 -127.84096055006596 0.9999999999983805
    vertex 10.630472738369422 -128.3197733716543 2.9999999999982787
    vertex 10.006471720433563 -127.84096055006596 2.9999999999983795
  endloop
endfacet
facet normal -0.6087614290085727 -0.7933533402913486 9.857432028515003e-14
  outer loop
    vertex 10.630472738369422 -128.3197733716543 2.9999999999982787
    vertex 10.00647172043324 -127.84096055006596 0.9999999999983805
    vertex 10.630472738369098 -128.3197733716543 0.9999999999982794
  endloop
endfacet
facet normal -0.3826834323649536 -0.9238795325113432 6.196640823844355e-14
  outer loop
    vertex 9.27980714431197 -127.53996622734056 0.999999999998498
    vertex 10.006471720433563 -127.84096055006596 2.9999999999983795
    vertex 9.279807144312294 -127.53996622734056 2.999999999998497
  endloop
endfacet
facet normal -0.3826834323649536 -0.9238795325113432 6.196640823844355e-14
  outer loop
    vertex 10.006471720433563 -127.84096055006596 2.9999999999983795
    vertex 9.27980714431197 -127.53996622734056 0.999999999998498
    vertex 10.00647172043324 -127.84096055006596 0.9999999999983805
  endloop
endfacet
facet normal -0.13052619221984743 -0.9914448613738372 2.1135587874604177e-14
  outer loop
    vertex 8.499999999998051 -127.4373026691553 0.9999999999986245
    vertex 9.279807144312294 -127.53996622734056 2.999999999998497
    vertex 8.499999999998376 -127.4373026691553 2.9999999999986233
  endloop
endfacet
facet normal -0.13052619221984743 -0.9914448613738372 2.1135587874604177e-14
  outer loop
    vertex 9.279807144312294 -127.53996622734056 2.999999999998497
    vertex 8.499999999998051 -127.4373026691553 0.9999999999986245
    vertex 9.27980714431197 -127.53996622734056 0.999999999998498
  endloop
endfacet
facet normal 0.13052619222021117 -0.9914448613737894 -2.1135587874663073e-14
  outer loop
    vertex 7.720192855684116 -127.53996622734084 0.9999999999987507
    vertex 8.499999999998376 -127.4373026691553 2.9999999999986233
    vertex 7.720192855684441 -127.53996622734084 2.99999999999875
  endloop
endfacet
facet normal 0.13052619222021117 -0.9914448613737894 -2.1135587874663073e-14
  outer loop
    vertex 8.499999999998376 -127.4373026691553 2.9999999999986233
    vertex 7.720192855684116 -127.53996622734084 0.9999999999987507
    vertex 8.499999999998051 -127.4373026691553 0.9999999999986245
  endloop
endfacet
facet normal 0.38268343236526436 -0.9238795325112145 -6.196640823849387e-14
  outer loop
    vertex 6.993528279562993 -127.84096055006647 0.9999999999988685
    vertex 7.720192855684441 -127.53996622734084 2.99999999999875
    vertex 6.993528279563318 -127.84096055006647 2.999999999998867
  endloop
endfacet
facet normal 0.38268343236526436 -0.9238795325112145 -6.196640823849387e-14
  outer loop
    vertex 7.720192855684441 -127.53996622734084 2.99999999999875
    vertex 6.993528279562993 -127.84096055006647 0.9999999999988685
    vertex 7.720192855684116 -127.53996622734084 0.9999999999987507
  endloop
endfacet
facet normal 0.6087614290088736 -0.7933533402911177 -9.857432028519876e-14
  outer loop
    vertex 6.36952726162736 -128.31977337165503 0.9999999999989693
    vertex 6.993528279563318 -127.84096055006647 2.999999999998867
    vertex 6.369527261627685 -128.31977337165503 2.999999999998969
  endloop
endfacet
facet normal 0.6087614290088736 -0.7933533402911177 -9.857432028519876e-14
  outer loop
    vertex 6.993528279563318 -127.84096055006647 2.999999999998867
    vertex 6.36952726162736 -128.31977337165503 0.9999999999989693
    vertex 6.993528279562993 -127.84096055006647 0.9999999999988685
  endloop
endfacet
facet normal 0.7933533402913419 -0.6087614290085817 -1.284645553062316e-13
  outer loop
    vertex 6.36952726162736 -128.31977337165503 0.9999999999989693
    vertex 5.89071444003933 -128.94377438959089 2.999999999999046
    vertex 5.890714440039006 -128.94377438959089 0.9999999999990468
  endloop
endfacet
facet normal 0.7933533402913419 -0.6087614290085817 -1.284645553062316e-13
  outer loop
    vertex 5.89071444003933 -128.94377438959089 2.999999999999046
    vertex 6.36952726162736 -128.31977337165503 0.9999999999989693
    vertex 6.369527261627685 -128.31977337165503 2.999999999998969
  endloop
endfacet
facet normal 0.9238795325113591 -0.3826834323649153 -1.4960014318086326e-13
  outer loop
    vertex 5.890714440039006 -128.94377438959089 0.9999999999990468
    vertex 5.589720117313972 -129.67043896571212 2.999999999999095
    vertex 5.5897201173136475 -129.67043896571212 0.9999999999990957
  endloop
endfacet
facet normal 0.9238795325113591 -0.3826834323649153 -1.4960014318086326e-13
  outer loop
    vertex 5.589720117313972 -129.67043896571212 2.999999999999095
    vertex 5.890714440039006 -128.94377438959089 0.9999999999990468
    vertex 5.89071444003933 -128.94377438959089 2.999999999999046
  endloop
endfacet
facet normal 0.9914448613738338 -0.13052619221987452 -1.6054072852364338e-13
  outer loop
    vertex 5.5897201173136475 -129.67043896571212 0.9999999999990957
    vertex 5.487056559128688 -130.4502461100261 2.999999999999111
    vertex 5.487056559128363 -130.4502461100261 0.9999999999991124
  endloop
endfacet
facet normal 0.9914448613738338 -0.13052619221987452 -1.6054072852364338e-13
  outer loop
    vertex 5.487056559128688 -130.4502461100261 2.999999999999111
    vertex 5.5897201173136475 -129.67043896571212 0.9999999999990957
    vertex 5.589720117313972 -129.67043896571212 2.999999999999095
  endloop
endfacet
facet normal 0.9914448613737868 0.130526192220231 -1.6054072852363578e-13
  outer loop
    vertex 5.487056559128363 -130.4502461100261 0.9999999999991124
    vertex 5.589720117314249 -131.23005325433996 2.999999999999095
    vertex 5.589720117313924 -131.23005325433996 0.9999999999990957
  endloop
endfacet
facet normal 0.9914448613737868 0.130526192220231 -1.6054072852363578e-13
  outer loop
    vertex 5.589720117314249 -131.23005325433996 2.999999999999095
    vertex 5.487056559128363 -130.4502461100261 0.9999999999991124
    vertex 5.487056559128688 -130.4502461100261 2.999999999999111
  endloop
endfacet
facet normal 0.9238795325112183 0.38268343236525476 -1.496001431808405e-13
  outer loop
    vertex 5.589720117313924 -131.23005325433996 0.9999999999990957
    vertex 5.890714440039892 -131.95671783046114 2.999999999999046
    vertex 5.8907144400395675 -131.95671783046114 0.9999999999990468
  endloop
endfacet
facet normal 0.9238795325112183 0.38268343236525476 -1.496001431808405e-13
  outer loop
    vertex 5.890714440039892 -131.95671783046114 2.999999999999046
    vertex 5.589720117313924 -131.23005325433996 0.9999999999990957
    vertex 5.589720117314249 -131.23005325433996 2.999999999999095
  endloop
endfacet
facet normal 0.7933533402911155 0.6087614290088765 -1.2846455530619494e-13
  outer loop
    vertex 5.8907144400395675 -131.95671783046114 0.9999999999990468
    vertex 6.369527261628407 -132.58071884839674 2.999999999998969
    vertex 6.369527261628082 -132.58071884839674 0.9999999999989693
  endloop
endfacet
facet normal 0.7933533402911155 0.6087614290088765 -1.2846455530619494e-13
  outer loop
    vertex 6.369527261628407 -132.58071884839674 2.999999999998969
    vertex 5.8907144400395675 -131.95671783046114 0.9999999999990468
    vertex 5.890714440039892 -131.95671783046114 2.999999999999046
  endloop
endfacet
facet normal 0.6087614290085727 0.7933533402913486 -9.857432028515003e-14
  outer loop
    vertex 6.99352827956394 -133.05953166998506 0.9999999999988685
    vertex 6.369527261628407 -132.58071884839674 2.999999999998969
    vertex 6.993528279564265 -133.05953166998506 2.999999999998867
  endloop
endfacet
facet normal 0.6087614290085727 0.7933533402913486 -9.857432028515003e-14
  outer loop
    vertex 6.369527261628407 -132.58071884839674 2.999999999998969
    vertex 6.99352827956394 -133.05953166998506 0.9999999999988685
    vertex 6.369527261628082 -132.58071884839674 0.9999999999989693
  endloop
endfacet
facet normal 0.3826834323649536 0.9238795325113432 -6.196640823844355e-14
  outer loop
    vertex 7.720192855685211 -133.36052599271048 0.9999999999987507
    vertex 6.993528279564265 -133.05953166998506 2.999999999998867
    vertex 7.720192855685535 -133.36052599271048 2.99999999999875
  endloop
endfacet
facet normal 0.3826834323649536 0.9238795325113432 -6.196640823844355e-14
  outer loop
    vertex 6.993528279564265 -133.05953166998506 2.999999999998867
    vertex 7.720192855685211 -133.36052599271048 0.9999999999987507
    vertex 6.99352827956394 -133.05953166998506 0.9999999999988685
  endloop
endfacet
facet normal 0.13052619221984743 0.9914448613738372 -2.1135587874604177e-14
  outer loop
    vertex 8.499999999999128 -133.46318955089572 0.9999999999986245
    vertex 7.720192855685535 -133.36052599271048 2.99999999999875
    vertex 8.499999999999453 -133.46318955089572 2.9999999999986233
  endloop
endfacet
facet normal 0.13052619221984743 0.9914448613738372 -2.1135587874604177e-14
  outer loop
    vertex 7.720192855685535 -133.36052599271048 2.99999999999875
    vertex 8.499999999999128 -133.46318955089572 0.9999999999986245
    vertex 7.720192855685211 -133.36052599271048 0.9999999999987507
  endloop
endfacet
facet normal -0.13052619222021117 0.9914448613737894 2.1135587874663073e-14
  outer loop
    vertex 9.279807144313065 -133.36052599271017 0.999999999998498
    vertex 8.499999999999453 -133.46318955089572 2.9999999999986233
    vertex 9.279807144313388 -133.36052599271017 2.999999999998497
  endloop
endfacet
facet normal -0.13052619222021117 0.9914448613737894 2.1135587874663073e-14
  outer loop
    vertex 8.499999999999453 -133.46318955089572 2.9999999999986233
    vertex 9.279807144313065 -133.36052599271017 0.999999999998498
    vertex 8.499999999999128 -133.46318955089572 0.9999999999986245
  endloop
endfacet
facet normal -0.38268343236526436 0.9238795325112145 6.196640823849387e-14
  outer loop
    vertex 10.006471720434186 -133.05953166998455 0.9999999999983805
    vertex 9.279807144313388 -133.36052599271017 2.999999999998497
    vertex 10.006471720434511 -133.05953166998455 2.9999999999983795
  endloop
endfacet
facet normal -0.38268343236526436 0.9238795325112145 6.196640823849387e-14
  outer loop
    vertex 9.279807144313388 -133.36052599271017 2.999999999998497
    vertex 10.006471720434186 -133.05953166998455 0.9999999999983805
    vertex 9.279807144313065 -133.36052599271017 0.999999999998498
  endloop
endfacet
endsolid deskframe
